<?xml version="1.0" encoding="utf-8"?>
<!-- Generator: Adobe Illustrator 26.0.1, SVG Export Plug-In . SVG Version: 6.00 Build 0)  -->
<svg version="1.1" id="Layer_1" xmlns="http://www.w3.org/2000/svg" xmlns:xlink="http://www.w3.org/1999/xlink" x="0px" y="0px"
	 viewBox="0 0 150 80" style="enable-background:new 0 0 150 80;" xml:space="preserve">
<style type="text/css">
	.st0{fill:#6D6E71;}
	.st1{fill:#A7A9AC;}
	.st2{fill:none;}
</style>
<g>
	<path class="st0" d="M30.78,51.73l0.06,0.14c0.29-0.37,0.6-0.73,0.94-1.07C31.45,51.13,31.12,51.43,30.78,51.73z"/>
	<g>
		<ellipse class="st1" cx="19.57" cy="42.12" rx="4.86" ry="4.71"/>
		<path d="M29.28,55.94c-2.02,1.33-4.26,2.21-6.58,2.62c-5.39,0.96-11.16-0.58-15.33-4.62c-6.74-6.53-6.74-17.11,0-23.63
			c5.09-4.93,12.57-6.14,18.82-3.62v6.72c-4.37-3.13-10.56-2.77-14.52,1.06c-4.36,4.23-4.36,11.07,0,15.3
			c4.18,4.05,10.85,4.22,15.24,0.5l0.02,0.04L29.28,55.94z"/>
		<path d="M51.87,73.41c-6.48,6.28-16.83,6.52-23.6,0.72l4.32-4.18c4.39,3.5,10.88,3.26,14.99-0.71c4.36-4.23,4.36-11.07,0-15.3
			c-4.36-4.23-11.43-4.23-15.8,0c-0.32,0.31-0.66,0.61-1,0.89l-2.44-5.84c2.4-2.03,5.25-3.31,8.2-3.84
			c5.39-0.96,11.16,0.58,15.33,4.62C58.61,56.3,58.61,66.88,51.87,73.41z"/>
		<path class="st1" d="M43.11,64.92c-1.9,1.84-4.98,1.84-6.88,0c-1.9-1.84-1.9-4.82,0-6.66s4.98-1.84,6.88,0
			C45.01,60.1,45.01,63.08,43.11,64.92z"/>
	</g>
	<line class="st2" x1="33.3" y1="66.62" x2="32.58" y2="67.33"/>
	<path class="st2" d="M26.2,29.61"/>
	<g>
		<path d="M38.4,2.64V6.5h-5.46v16.23h-4.89V6.5h-5.4V2.64H38.4z"/>
		<path d="M54.84,8.52c1.07,1.21,1.61,2.88,1.61,5v9.21h-4.86v-8.64c0-1.06-0.28-1.89-0.84-2.49c-0.56-0.6-1.3-0.9-2.23-0.9
			c-0.99,0-1.77,0.31-2.34,0.94c-0.58,0.63-0.87,1.52-0.87,2.67v8.41h-4.86V1.7h4.86v8.07c0.45-0.95,1.13-1.7,2.03-2.25
			c0.9-0.55,1.96-0.82,3.17-0.82C52.33,6.7,53.77,7.31,54.84,8.52z"/>
		<path d="M74.58,15.68h-11c0.06,1.19,0.36,2.05,0.91,2.57c0.55,0.52,1.25,0.78,2.1,0.78c0.72,0,1.32-0.18,1.79-0.54
			c0.47-0.36,0.79-0.82,0.94-1.39h5.14c-0.21,1.12-0.66,2.12-1.36,3c-0.7,0.88-1.59,1.57-2.67,2.07c-1.08,0.5-2.28,0.75-3.61,0.75
			c-1.55,0-2.93-0.33-4.14-0.98c-1.2-0.65-2.15-1.6-2.83-2.83c-0.68-1.23-1.02-2.67-1.02-4.32c0-1.67,0.34-3.11,1.01-4.33
			c0.67-1.22,1.62-2.16,2.83-2.81c1.21-0.65,2.6-0.98,4.15-0.98c1.57,0,2.96,0.32,4.15,0.97c1.19,0.64,2.12,1.55,2.77,2.71
			c0.65,1.17,0.98,2.51,0.98,4.02C74.73,14.77,74.68,15.21,74.58,15.68z M68.97,11.29c-0.58-0.52-1.29-0.78-2.15-0.78
			c-0.89,0-1.63,0.27-2.22,0.8c-0.59,0.53-0.92,1.31-0.99,2.33h6.2C69.83,12.6,69.55,11.81,68.97,11.29z"/>
	</g>
	<g>
		<path d="M35.25,26.92c0.96-0.57,1.99-0.85,3.11-0.85v5.2h-1.39c-1.29,0-2.29,0.27-3,0.82c-0.71,0.55-1.07,1.48-1.07,2.79v7.22
			h-4.86V26.24h4.86v2.98C33.51,28.25,34.29,27.49,35.25,26.92z"/>
		<path d="M55.33,35.05h-11c0.06,1.19,0.36,2.05,0.91,2.57c0.55,0.52,1.25,0.78,2.1,0.78c0.72,0,1.32-0.18,1.79-0.54
			c0.47-0.36,0.79-0.82,0.94-1.39h5.14c-0.21,1.12-0.66,2.12-1.36,3c-0.7,0.88-1.59,1.57-2.67,2.07c-1.08,0.5-2.28,0.75-3.61,0.75
			c-1.55,0-2.93-0.33-4.14-0.98c-1.2-0.65-2.15-1.6-2.83-2.83c-0.68-1.23-1.02-2.67-1.02-4.32c0-1.67,0.34-3.11,1.01-4.33
			c0.67-1.22,1.62-2.16,2.83-2.81c1.21-0.65,2.6-0.98,4.15-0.98c1.57,0,2.96,0.32,4.15,0.97c1.19,0.64,2.12,1.55,2.77,2.71
			c0.65,1.17,0.98,2.51,0.98,4.02C55.47,34.14,55.43,34.57,55.33,35.05z M49.72,30.66c-0.58-0.52-1.29-0.78-2.15-0.78
			c-0.89,0-1.63,0.27-2.22,0.8c-0.59,0.53-0.92,1.31-0.99,2.33h6.2C50.58,31.96,50.3,31.18,49.72,30.66z"/>
		<path d="M67.16,26.86c0.87,0.55,1.52,1.3,1.93,2.25v-2.87h4.83V42.1h-4.83v-2.87c-0.42,0.95-1.06,1.7-1.93,2.25
			c-0.87,0.55-1.91,0.82-3.13,0.82c-1.31,0-2.48-0.33-3.51-0.98c-1.03-0.65-1.85-1.6-2.44-2.83c-0.6-1.23-0.9-2.67-0.9-4.32
			c0-1.67,0.3-3.11,0.9-4.33c0.6-1.22,1.41-2.16,2.44-2.81c1.03-0.65,2.2-0.98,3.51-0.98C65.24,26.04,66.28,26.31,67.16,26.86z
			 M63.08,31.32c-0.64,0.68-0.95,1.63-0.95,2.84c0,1.21,0.32,2.16,0.95,2.84c0.63,0.68,1.47,1.02,2.52,1.02
			c1.02,0,1.86-0.35,2.52-1.05c0.65-0.7,0.98-1.64,0.98-2.81c0-1.19-0.33-2.14-0.98-2.83c-0.65-0.69-1.49-1.04-2.52-1.04
			C64.55,30.3,63.71,30.64,63.08,31.32z"/>
		<path d="M89.58,27.73c1.38,1.13,2.25,2.68,2.62,4.65h-5.14c-0.15-0.68-0.46-1.21-0.94-1.59c-0.47-0.38-1.07-0.57-1.79-0.57
			c-0.85,0-1.55,0.34-2.1,1.01c-0.55,0.67-0.82,1.65-0.82,2.94c0,1.29,0.27,2.27,0.82,2.94c0.55,0.67,1.25,1.01,2.1,1.01
			c0.72,0,1.32-0.19,1.79-0.57c0.47-0.38,0.79-0.91,0.94-1.59h5.14c-0.36,1.97-1.23,3.52-2.62,4.65c-1.38,1.13-3.1,1.69-5.14,1.69
			c-1.55,0-2.93-0.33-4.14-0.98c-1.2-0.65-2.15-1.6-2.83-2.83c-0.68-1.23-1.02-2.67-1.02-4.32c0-1.67,0.34-3.11,1.01-4.33
			c0.67-1.22,1.62-2.16,2.83-2.81c1.21-0.65,2.6-0.98,4.15-0.98C86.48,26.04,88.2,26.6,89.58,27.73z"/>
		<path d="M103.71,37.92v4.18h-2.19c-1.86,0-3.3-0.46-4.33-1.38c-1.03-0.92-1.55-2.44-1.55-4.56v-5.83h-2.13v-4.09h2.13v-3.89h4.86
			v3.89h3.18v4.09h-3.18v5.91c0,0.63,0.13,1.06,0.38,1.31c0.26,0.25,0.69,0.37,1.29,0.37H103.71z"/>
		<path d="M106.78,19.94c0.53-0.48,1.23-0.72,2.1-0.72c0.87,0,1.57,0.24,2.1,0.72c0.53,0.48,0.8,1.09,0.8,1.83
			c0,0.72-0.27,1.32-0.8,1.8c-0.53,0.48-1.23,0.72-2.1,0.72c-0.87,0-1.57-0.24-2.1-0.72c-0.53-0.48-0.8-1.08-0.8-1.8
			C105.98,21.04,106.25,20.42,106.78,19.94z M111.3,26.24V42.1h-4.86V26.24H111.3z"/>
		<path d="M121.99,37.35l3.44-11.11h5.17l-5.63,15.86h-6.03l-5.63-15.86h5.17L121.99,37.35z"/>
		<path d="M147.54,35.05h-11c0.06,1.19,0.36,2.05,0.91,2.57c0.55,0.52,1.25,0.78,2.1,0.78c0.72,0,1.32-0.18,1.79-0.54
			c0.47-0.36,0.79-0.82,0.94-1.39h5.14c-0.21,1.12-0.66,2.12-1.36,3c-0.7,0.88-1.59,1.57-2.67,2.07c-1.08,0.5-2.28,0.75-3.61,0.75
			c-1.55,0-2.93-0.33-4.14-0.98c-1.2-0.65-2.15-1.6-2.83-2.83c-0.68-1.23-1.02-2.67-1.02-4.32c0-1.67,0.34-3.11,1.01-4.33
			c0.67-1.22,1.62-2.16,2.83-2.81c1.21-0.65,2.6-0.98,4.15-0.98c1.57,0,2.96,0.32,4.15,0.97c1.19,0.64,2.12,1.55,2.77,2.71
			c0.65,1.17,0.98,2.51,0.98,4.02C147.68,34.14,147.63,34.57,147.54,35.05z M141.92,30.66c-0.58-0.52-1.29-0.78-2.15-0.78
			c-0.89,0-1.63,0.27-2.22,0.8c-0.59,0.53-0.92,1.31-0.99,2.33h6.2C142.78,31.96,142.5,31.18,141.92,30.66z"/>
	</g>
	<g>
		<path d="M73.21,61.79c1.07,1.21,1.61,2.88,1.61,5V76h-4.86v-8.64c0-1.06-0.28-1.89-0.84-2.49c-0.56-0.6-1.3-0.9-2.23-0.9
			c-0.99,0-1.77,0.31-2.35,0.94c-0.58,0.63-0.87,1.52-0.87,2.67V76h-4.86V50.62h4.86v12.42c0.45-0.95,1.13-1.7,2.03-2.25
			c0.9-0.55,1.96-0.82,3.17-0.82C70.7,59.97,72.14,60.58,73.21,61.79z"/>
		<path d="M87.18,60.76c0.87,0.55,1.52,1.3,1.93,2.25v-2.87h4.83V76h-4.83v-2.87c-0.42,0.95-1.06,1.7-1.93,2.25
			c-0.87,0.55-1.91,0.82-3.13,0.82c-1.31,0-2.48-0.33-3.51-0.98c-1.03-0.65-1.85-1.6-2.44-2.83c-0.6-1.23-0.9-2.67-0.9-4.32
			c0-1.67,0.3-3.11,0.9-4.33c0.6-1.22,1.41-2.16,2.44-2.81c1.03-0.65,2.2-0.98,3.51-0.98C85.27,59.94,86.31,60.22,87.18,60.76z
			 M83.1,65.23c-0.64,0.68-0.95,1.63-0.95,2.84c0,1.21,0.32,2.16,0.95,2.84c0.63,0.68,1.47,1.02,2.52,1.02
			c1.02,0,1.86-0.35,2.52-1.05c0.65-0.7,0.98-1.64,0.98-2.81c0-1.19-0.33-2.14-0.98-2.83c-0.65-0.69-1.49-1.04-2.52-1.04
			C84.58,64.2,83.74,64.54,83.1,65.23z"/>
		<path d="M97.64,53.84c0.53-0.48,1.23-0.72,2.1-0.72c0.87,0,1.57,0.24,2.1,0.72c0.53,0.48,0.8,1.09,0.8,1.83
			c0,0.72-0.27,1.32-0.8,1.8c-0.53,0.48-1.23,0.72-2.1,0.72c-0.87,0-1.57-0.24-2.1-0.72c-0.53-0.48-0.8-1.08-0.8-1.8
			C96.84,54.94,97.11,54.33,97.64,53.84z M102.16,60.14V76H97.3V60.14H102.16z"/>
		<path d="M119.91,61.79c1.07,1.21,1.61,2.88,1.61,5V76h-4.86v-8.64c0-1.06-0.28-1.89-0.84-2.49c-0.56-0.6-1.3-0.9-2.23-0.9
			c-0.99,0-1.77,0.31-2.34,0.94c-0.58,0.63-0.87,1.52-0.87,2.67V76h-4.86V60.14h4.86v2.9c0.45-0.95,1.13-1.7,2.03-2.25
			c0.9-0.55,1.96-0.82,3.17-0.82C117.4,59.97,118.84,60.58,119.91,61.79z"/>
	</g>
	<circle class="st0" cx="126.11" cy="72.4" r="2.82"/>
</g>
</svg>
